<svg id="Outline" viewBox="0 0 20 24" xmlns="http://www.w3.org/2000/svg">
<path d="M2 10.5C2 6.08172 5.58172 2.5 10 2.5C14.4183 2.5 18 6.08172 18 10.5C18 13.555 16.499 16.2081 14.684 18.2932C12.9133 20.3276 10.9196 21.7322 10 22.3254C9.08042 21.7322 7.08673 20.3276 5.31595 18.2932C3.50105 16.2081 2 13.555 2 10.5ZM10 0.5C4.47715 0.5 0 4.97715 0 10.5C0 14.2276 1.82772 17.3319 3.80737 19.6063C5.79199 21.8864 8.00951 23.4267 8.98193 24.0485C9.60722 24.4484 10.3928 24.4484 11.0181 24.0485C11.9905 23.4267 14.208 21.8864 16.1926 19.6063C18.1723 17.3319 20 14.2276 20 10.5C20 4.97715 15.5228 0.5 10 0.5ZM7 10.5C7 8.84315 8.34315 7.5 10 7.5C11.6569 7.5 13 8.84315 13 10.5C13 12.1569 11.6569 13.5 10 13.5C8.34315 13.5 7 12.1569 7 10.5ZM10 5.5C7.23858 5.5 5 7.73858 5 10.5C5 13.2614 7.23858 15.5 10 15.5C12.7614 15.5 15 13.2614 15 10.5C15 7.73858 12.7614 5.5 10 5.5Z" />
</svg>
