<svg id="Outline" viewBox="0 0 24 20" xmlns="http://www.w3.org/2000/svg">
<path fill-rule="evenodd" clip-rule="evenodd" d="M5 0C2.23858 0 0 2.23858 0 5V15C0 17.7614 2.23858 20 5 20H19C21.7614 20 24 17.7614 24 15V5C24 2.23858 21.7614 0 19 0H5ZM3.70658 2.29237C4.09822 2.10495 4.53685 2 5 2H19C19.4631 2 19.9018 2.10495 20.2934 2.29237C20.2932 2.29255 20.2931 2.29272 20.2929 2.29289L12 10.5858L3.70711 2.29289C3.70693 2.29272 3.70676 2.29255 3.70658 2.29237ZM2.29237 3.70658C2.10495 4.09822 2 4.53685 2 5V15C2 16.6569 3.34315 18 5 18H19C20.6569 18 22 16.6569 22 15V5C22 4.53685 21.895 4.09822 21.7076 3.70658C21.7075 3.70676 21.7073 3.70693 21.7071 3.70711L13.4142 12C12.6332 12.781 11.3668 12.7811 10.5858 12L2.29289 3.70711C2.29272 3.70693 2.29255 3.70676 2.29237 3.70658Z"/>
</svg>
