<svg id="Outline" viewBox="0 0 24 24" xmlns="http://www.w3.org/2000/svg">
<path d="M5 0C2.23858 0 0 2.23858 0 5V15C0 17.7614 2.23858 20 5 20H7.17157C7.43679 20 7.69114 20.1054 7.87868 20.2929L10.5371 22.9513C11.3552 23.7694 12.6946 23.7248 13.4564 22.8541L15.655 20.3415C15.8448 20.1245 16.1192 20 16.4075 20H19C21.7614 20 24 17.7614 24 15V5C24 2.23858 21.7614 0 19 0H5ZM2 5C2 3.34315 3.34315 2 5 2H19C20.6569 2 22 3.34315 22 5V15C22 16.6569 20.6569 18 19 18H16.4075C15.5424 18 14.7195 18.3734 14.1498 19.0245L11.9513 21.5371L9.29289 18.8787C8.73028 18.3161 7.96722 18 7.17157 18H5C3.34315 18 2 16.6569 2 15V5ZM6 13C5.44772 13 5 13.4477 5 14C5 14.5523 5.44772 15 6 15H12.0269C12.5792 15 13.0269 14.5523 13.0269 14C13.0269 13.4477 12.5792 13 12.0269 13H6ZM5 5.99808C5 5.44686 5.44686 5 5.99808 5H18.0019C18.5531 5 19 5.44686 19 5.99808C19 6.54931 18.5531 6.99616 18.0019 6.99616H5.99808C5.44686 6.99616 5 6.54931 5 5.99808ZM5.99808 9C5.44686 9 5 9.44686 5 9.99808C5 10.5493 5.44686 10.9962 5.99808 10.9962H18.0019C18.5531 10.9962 19 10.5493 19 9.99808C19 9.44686 18.5531 9 18.0019 9H5.99808Z"/>
</svg>
