<svg id="Outline" viewBox="0 0 24 24" xmlns="http://www.w3.org/2000/svg">
<path d="M13 0.999644C13 0.734427 13.1053 0.480073 13.2929 0.292537C13.4804 0.105001 13.7348 -0.000356157 14 -0.000356157C16.6512 0.00255544 19.1931 1.05706 21.0678 2.93179C22.9425 4.80653 23.997 7.34837 24 9.99965C24 10.2649 23.8946 10.5192 23.7071 10.7068C23.5195 10.8943 23.2652 10.9996 23 10.9996C22.7347 10.9996 22.4804 10.8943 22.2929 10.7068C22.1053 10.5192 22 10.2649 22 9.99965C21.9976 7.87864 21.154 5.8452 19.6542 4.34542C18.1544 2.84565 16.121 2.00203 14 1.99964C13.7348 1.99964 13.4804 1.89429 13.2929 1.70675C13.1053 1.51921 13 1.26486 13 0.999644ZM14 5.99964C15.0608 5.99964 16.0782 6.42107 16.8284 7.17122C17.5785 7.92136 18 8.93878 18 9.99965C18 10.2649 18.1053 10.5192 18.2929 10.7068C18.4804 10.8943 18.7347 10.9996 19 10.9996C19.2652 10.9996 19.5195 10.8943 19.7071 10.7068C19.8946 10.5192 20 10.2649 20 9.99965C19.9984 8.40883 19.3657 6.88363 18.2409 5.75876C17.116 4.63388 15.5908 4.00123 14 3.99964C13.7348 3.99964 13.4804 4.105 13.2929 4.29254C13.1053 4.48007 13 4.73443 13 4.99964C13 5.26486 13.1053 5.51921 13.2929 5.70675C13.4804 5.89429 13.7348 5.99964 14 5.99964ZM23.093 16.7386C23.6725 17.3198 23.9979 18.107 23.9979 18.9276C23.9979 19.7483 23.6725 20.5355 23.093 21.1166L22.183 22.1656C13.993 30.0066 -5.93701 10.0816 1.78298 1.86564L2.93298 0.865644C3.51475 0.302321 4.29491 -0.00930708 5.10468 -0.00182132C5.91445 0.00566445 6.68872 0.331662 7.25998 0.905644C7.29098 0.936644 9.14398 3.34364 9.14398 3.34364C9.6938 3.92127 9.99988 4.68857 9.99858 5.48605C9.99727 6.28352 9.68869 7.04982 9.13698 7.62564L7.97898 9.08165C8.61982 10.6388 9.56204 12.0539 10.7515 13.2457C11.9409 14.4376 13.3542 15.3827 14.91 16.0266L16.375 14.8616C16.9509 14.3104 17.717 14.0021 18.5143 14.001C19.3115 13.9999 20.0785 14.306 20.656 14.8556C20.656 14.8556 23.062 16.7076 23.093 16.7386ZM21.717 18.1926C21.717 18.1926 19.324 16.3516 19.293 16.3206C19.0869 16.1164 18.8086 16.0018 18.5185 16.0018C18.2283 16.0018 17.95 16.1164 17.744 16.3206C17.717 16.3486 15.7 17.9556 15.7 17.9556C15.564 18.0638 15.4023 18.1348 15.2306 18.1614C15.0589 18.1881 14.8833 18.1695 14.721 18.1076C12.7054 17.3572 10.8747 16.1824 9.35281 14.6627C7.83091 13.1431 6.65338 11.3141 5.89998 9.29965C5.83318 9.1351 5.8114 8.95573 5.83688 8.77998C5.86237 8.60423 5.93419 8.43844 6.04498 8.29965C6.04498 8.29965 7.65198 6.28164 7.67898 6.25564C7.88324 6.04963 7.99786 5.77126 7.99786 5.48114C7.99786 5.19103 7.88324 4.91266 7.67898 4.70664C7.64798 4.67664 5.80698 2.28164 5.80698 2.28164C5.59788 2.09415 5.32498 1.99374 5.04423 2.00099C4.76347 2.00824 4.49612 2.12261 4.29698 2.32064L3.14698 3.32064C-2.49501 10.1046 14.776 26.4176 20.721 20.7996L21.632 19.7496C21.8454 19.5519 21.9737 19.2789 21.9895 18.9883C22.0054 18.6978 21.9076 18.4125 21.717 18.1926Z"/>
</svg>
