<svg id="Outline" viewBox="0 0 24 14" xmlns="http://www.w3.org/2000/svg">
<path d="M19.7071 1.70711C20.0976 1.31658 20.0976 0.683417 19.7071 0.292893C19.3166 -0.0976311 18.6834 -0.0976311 18.2929 0.292893L7 11.5858L1.70711 6.29289C1.31658 5.90237 0.683417 5.90237 0.292893 6.29289C-0.0976311 6.68342 -0.0976311 7.31658 0.292893 7.70711L5.58579 13C6.36684 13.7811 7.63317 13.781 8.41421 13L19.7071 1.70711ZM23.7071 6.70711C24.0976 6.31658 24.0976 5.68342 23.7071 5.29289C23.3166 4.90237 22.6834 4.90237 22.2929 5.29289L16 11.5858L14.7071 10.2929C14.3166 9.90237 13.6834 9.90237 13.2929 10.2929C12.9024 10.6834 12.9024 11.3166 13.2929 11.7071L14.5858 13C15.3668 13.7811 16.6332 13.781 17.4142 13L23.7071 6.70711Z"/>
</svg>
