<svg id="Outline" viewBox="0 0 24 24" xmlns="http://www.w3.org/2000/svg">
<path d="M20.8584 15.3312L17.0864 21.4862C16.6722 22.1662 16.1084 22.7428 15.4377 23.172C14.7671 23.6012 14.0074 23.8718 13.2164 23.9632C13.008 23.9879 12.7983 24.0003 12.5884 24.0002C11.5139 23.9987 10.4661 23.6652 9.58845 23.0452C8.68151 23.7247 7.56118 24.0568 6.43046 23.9814C5.29973 23.906 4.23341 23.4281 3.4247 22.6343C2.61598 21.8404 2.11836 20.7832 2.02201 19.654C1.92565 18.5249 2.23693 17.3986 2.89945 16.4792L1.58445 15.1662C1.02294 14.6047 0.595765 13.9234 0.334901 13.1733C0.0740364 12.4233 -0.013751 11.6239 0.078113 10.8352C0.169977 10.0464 0.439111 9.28861 0.86536 8.61859C1.29161 7.94857 1.86393 7.38367 2.53945 6.9662L8.30645 3.4002C9.86866 2.39898 11.7058 1.91356 13.5587 2.01242C15.4116 2.11128 17.1866 2.78944 18.6334 3.9512L20.2924 2.2922C20.3847 2.19669 20.495 2.12051 20.617 2.0681C20.739 2.01569 20.8703 1.98811 21.003 1.98695C21.1358 1.9858 21.2675 2.0111 21.3904 2.06138C21.5133 2.11166 21.625 2.18592 21.7188 2.27981C21.8127 2.3737 21.887 2.48535 21.9373 2.60825C21.9876 2.73115 22.0129 2.86283 22.0117 2.9956C22.0105 3.12838 21.983 3.2596 21.9305 3.38161C21.8781 3.50361 21.802 3.61396 21.7064 3.7062L20.0494 5.3642C21.1608 6.75644 21.8314 8.44863 21.9756 10.2242C22.1197 11.9998 21.7307 13.778 20.8584 15.3312ZM8.06445 21.6472L4.34545 17.9272C4.05483 18.447 3.94273 19.0477 4.02637 19.6373C4.11 20.2269 4.38474 20.7728 4.80845 21.1912C5.23587 21.5972 5.77952 21.8594 6.36334 21.9412C6.94716 22.023 7.54194 21.9202 8.06445 21.6472ZM17.9854 6.0472C16.875 4.92604 15.4132 4.22023 13.8446 4.04784C12.2761 3.87546 10.6959 4.24696 9.36845 5.1002L3.59145 8.6662C3.17249 8.92517 2.81755 9.27557 2.55321 9.69116C2.28886 10.1067 2.12197 10.5768 2.06502 11.066C2.00808 11.5552 2.06256 12.051 2.22438 12.5162C2.3862 12.9814 2.65117 13.4039 2.99945 13.7522L10.2894 21.0432C10.6383 21.3924 11.0618 21.658 11.528 21.82C11.9943 21.982 12.4912 22.0361 12.9815 21.9784C13.4717 21.9206 13.9424 21.7525 14.3583 21.4866C14.7742 21.2207 15.1243 20.8639 15.3824 20.4432L19.1374 14.3182C19.8709 13.0009 20.1552 11.4806 19.9473 9.9873C19.7394 8.49401 19.0507 7.1091 17.9854 6.0422V6.0472ZM19.2644 24.0002C19.0533 24.0006 18.8474 23.9341 18.6763 23.8103C18.5052 23.6865 18.3777 23.5116 18.3121 23.3109C18.2465 23.1102 18.2461 22.8938 18.311 22.6929C18.3759 22.4919 18.5028 22.3166 18.6734 22.1922C20.4245 20.8758 21.6095 18.9429 21.9884 16.7852C22.015 16.6553 22.0672 16.532 22.1418 16.4225C22.2165 16.3129 22.3122 16.2193 22.4234 16.1471C22.5345 16.0748 22.659 16.0254 22.7894 16.0017C22.9199 15.978 23.0537 15.9805 23.1832 16.009C23.3127 16.0375 23.4352 16.0915 23.5436 16.1678C23.652 16.2441 23.7442 16.3412 23.8148 16.4534C23.8853 16.5657 23.9329 16.6908 23.9546 16.8216C23.9764 16.9524 23.9719 17.0862 23.9414 17.2152C23.4515 19.8469 21.9928 22.1993 19.8534 23.8082C19.6824 23.9329 19.4762 24.0002 19.2644 24.0002ZM0.999449 5.7392C0.814752 5.73838 0.633891 5.68642 0.47692 5.58909C0.319949 5.49175 0.193002 5.35285 0.110153 5.18777C0.027305 5.0227 -0.00820713 4.8379 0.00755457 4.65388C0.0233163 4.46985 0.0897359 4.29379 0.199449 4.1452C1.83043 1.96579 4.23127 0.490526 6.91245 0.020204C7.17236 -0.0328393 7.4427 0.0195396 7.66399 0.165818C7.88528 0.312096 8.03941 0.540292 8.09245 0.800204C8.14549 1.06012 8.09311 1.33045 7.94683 1.55175C7.80056 1.77304 7.57236 1.92716 7.31245 1.9802C5.11043 2.34383 3.13468 3.54583 1.79945 5.3342C1.70683 5.45932 1.58627 5.56109 1.44739 5.6314C1.3085 5.70171 1.15512 5.73862 0.999449 5.7392Z"/>
</svg>
