<svg id="Outline" viewBox="0 0 24 22" xmlns="http://www.w3.org/2000/svg">
<path d="M5 0C2.23858 0 0 2.23858 0 5V15C0 17.7614 2.23858 20 5 20H15C15.5523 20 16 19.5523 16 19C16 18.4477 15.5523 18 15 18H5C3.34315 18 2 16.6569 2 15V5C2 4.53685 2.10495 4.09822 2.29237 3.70658L10.5858 12C11.3668 12.7811 12.6332 12.781 13.4142 12L21.7076 3.70658C21.895 4.09822 22 4.53685 22 5V8C22 8.55229 22.4477 9 23 9C23.5523 9 24 8.55229 24 8V5C24 2.23858 21.7614 0 19 0H5ZM3.70658 2.29237C4.09822 2.10495 4.53685 2 5 2H19C19.4631 2 19.9018 2.10495 20.2934 2.29237L12 10.5858L3.70658 2.29237ZM20 16C21.1046 16 22 15.1046 22 14C22 12.8954 21.1046 12 20 12C18.8954 12 18 12.8954 18 14C18 15.1046 18.8954 16 20 16ZM24 14C24 15.4806 23.1956 16.7733 22 17.4649V19V20.1716V20.2105V20.5858V21.2929C22 21.6834 21.6834 22 21.2929 22C21.1055 22 20.9258 21.9256 20.7933 21.7933L20.7929 21.7929L20.2929 21.2929L20.0273 21.0273L20 21L19.9727 21.0273L19.7071 21.2929L19.2071 21.7929L19.2068 21.7932C19.0743 21.9256 18.8945 22 18.7071 22C18.3166 22 18 21.6834 18 21.2929V20.5858V20.2105V20.1716V19V17.4649C16.8044 16.7733 16 15.4806 16 14C16 11.7909 17.7909 10 20 10C22.2091 10 24 11.7909 24 14Z"/>
</svg>
