<svg width="16" height="24" viewBox="0 0 16 24" xmlns="http://www.w3.org/2000/svg">
<path d="M2 8C2 4.68629 4.68629 2 8 2C11.3137 2 14 4.68629 14 8C14 10.7248 12.1828 13.0278 9.69214 13.7583C8.37537 14.1446 7 15.2973 7 17V18C7 18.5523 7.44772 19 8 19C8.55228 19 9 18.5523 9 18V17C9 16.4936 9.45197 15.913 10.255 15.6775C13.5744 14.7039 16 11.6365 16 8C16 3.58172 12.4183 0 8 0C3.58172 0 0 3.58172 0 8C0 8.55228 0.447715 9 1 9C1.55228 9 2 8.55228 2 8ZM9.5 22.5C9.5 23.3284 8.82843 24 8 24C7.17157 24 6.5 23.3284 6.5 22.5C6.5 21.6716 7.17157 21 8 21C8.82843 21 9.5 21.6716 9.5 22.5Z"/>
</svg>
