<svg id="Outline" viewBox="0 0 24 25" xmlns="http://www.w3.org/2000/svg">
<path fill-rule="evenodd" clip-rule="evenodd" d="M17.1139 2.79289L21.7081 7.38909C22.0985 7.77961 22.0985 8.41278 21.7081 8.8033C21.5211 8.99039 21.3395 9.05751 21.1688 9.07301C20.9801 9.09016 20.7361 9.0474 20.4769 8.9004C19.5067 8.35032 17.8141 8.09214 16.5785 9.32828L15.4253 10.4819C14.4824 11.4253 14.3469 12.7726 14.7764 13.8268C15.7454 16.2053 15.2621 19.0308 13.3382 20.9556C13.17 21.1238 12.8974 21.1238 12.7292 20.9556L3.44302 11.6653C3.27486 11.4971 3.27486 11.2243 3.44302 11.0561C5.3927 9.10556 8.26715 8.6352 10.6636 9.65679C11.7248 10.1092 13.0953 9.98453 14.0525 9.02696L12.6389 7.61275L14.0525 9.02696L15.1649 7.91406C16.4007 6.67767 16.1406 4.9859 15.5979 4.01942C15.4548 3.76459 15.4128 3.52227 15.4308 3.33236C15.4472 3.15943 15.5159 2.97744 15.7003 2.79289C16.0907 2.40237 16.7236 2.40237 17.1139 2.79289ZM6.01566 17.0675L2.02942 13.0795C1.08057 12.1302 1.08057 10.5912 2.02942 9.64188C4.57559 7.0946 8.32593 6.48626 11.4473 7.81686C11.852 7.98939 12.3278 7.92397 12.6389 7.61275L13.7513 6.49985C14.1417 6.10932 14.1253 5.4805 13.855 4.999C13.2072 3.84546 13.2539 2.41201 14.2868 1.37868C15.4578 0.207107 17.3565 0.207107 18.5275 1.37868L23.1217 5.97487C24.2928 7.14645 24.2928 9.04594 23.1217 10.2175C22.0815 11.2581 20.6464 11.2954 19.4912 10.6404C19.0109 10.3681 18.3824 10.352 17.9921 10.7425L16.8389 11.8961C16.5324 12.2028 16.464 12.6703 16.6277 13.0719C17.8896 16.1694 17.2643 19.8562 14.7518 22.3698C13.8029 23.3191 12.2645 23.3191 11.3156 22.3698L7.42925 18.4817L1.70636 24.2071C1.316 24.5976 0.683117 24.5976 0.292765 24.2071C-0.0975882 23.8166 -0.0975882 23.1834 0.292765 22.7929L6.01566 17.0675Z" />
</svg>
