<svg width="24" height="24" id="Outline" viewBox="0 0 24 22" xmlns="http://www.w3.org/2000/svg">
<path d="M23.0692 0H16.1192C14.4002 0 12.9076 0.55894 12.0012 1.43149C11.0924 0.55894 9.59977 0 7.88084 0H0.928523C0.415514 0 0 0.414286 0 0.92578V19.3349C0 19.8464 0.415514 20 0.928523 20H7.88084C9.70655 20 11 20.5454 11 21.2999C11 21.8114 11.4858 22 11.9988 22C12.5118 22 13 21.8114 13 21.2999C13 20.5454 14.2911 20 16.1168 20H23.0692C23.5822 20 23.9977 19.8464 23.9977 19.3349V0.92578C23.9977 0.414286 23.5822 0 23.0692 0ZM11 18.5C10.1365 18.0244 9.10185 18 7.882 18H2.25C2.11193 18 2 17.8881 2 17.75V2.25C2 2.11193 2.11193 2 2.25 2H4.86894H7.88084C9.70655 2 11.0703 2.69633 11.0703 3.45084L11 11.309V18.5ZM22 17.75C22 17.8881 21.8881 18 21.75 18H16.1192C14.8982 18 13.8635 18.0244 13 18.5V11.3096V3.45084C13 2.69633 14.2935 2 16.1192 2H21.75C21.8881 2 22 2.11193 22 2.25V17.75ZM15 5C15 4.44772 15.4477 4 16 4H19C19.5523 4 20 4.44772 20 5C20 5.55228 19.5523 6 19 6H16C15.4477 6 15 5.55228 15 5ZM16 7C15.4477 7 15 7.44772 15 8C15 8.55229 15.4477 9 16 9H19C19.5523 9 20 8.55229 20 8C20 7.44772 19.5523 7 19 7H16Z"/>
</svg>
