<svg id="Outline" viewBox="0 0 24 24" xmlns="http://www.w3.org/2000/svg">
<path d="M0 9C0 4.02944 4.02944 0 9 0C13.9706 0 18 4.02944 18 9C18 13.9706 13.9706 18 9 18H3C1.34315 18 0 16.6569 0 15V9ZM9 2C5.13401 2 2 5.13401 2 9V15C2 15.5523 2.44772 16 3 16H9C12.866 16 16 12.866 16 9C16 5.13401 12.866 2 9 2ZM4.99808 7C4.44686 7 4 7.44686 4 7.99808C4 8.54931 4.44686 8.99616 4.99808 8.99616H13.0019C13.5531 8.99616 14 8.54931 14 7.99808C14 7.44686 13.5531 7 13.0019 7H4.99808ZM4.99665 11C4.44621 11 4 11.4462 4 11.9966C4 12.5471 4.44621 12.9933 4.99665 12.9933H9.00335C9.55379 12.9933 10 12.5471 10 11.9966C10 11.4462 9.55379 11 9.00335 11H4.99665ZM21.8292 9.13773C21.4694 8.71867 20.8381 8.67057 20.419 9.0303C20 9.39003 19.9519 10.0214 20.3116 10.4404C21.4574 11.7752 22.0586 13.4924 21.9957 15.2503C21.9988 16.5089 21.9974 19.4457 21.9964 20.9951C21.996 21.5465 21.5507 21.9934 20.9993 21.9939C19.2642 21.9956 15.8234 21.9982 15.3131 21.9929C13.5541 21.9746 11.8332 21.4856 10.4883 20.3518C10.0661 19.9958 9.43518 20.0496 9.07921 20.4718C8.72323 20.8941 8.77697 21.525 9.19923 21.8809C10.9284 23.3387 13.1431 24.092 15.4025 23.9909C15.8063 23.997 19.5889 23.9949 21.9987 23.9928C23.1024 23.9919 23.9944 23.0973 23.9944 21.9936V15.3219C24.0753 13.0617 23.3023 10.8538 21.8292 9.13773Z"/>
</svg>
