<svg id="Outline" viewBox="0 0 20 24" xmlns="http://www.w3.org/2000/svg">
<path d="M10.316 0.0522174L16.581 2.14122C17.5771 2.4721 18.4436 3.10848 19.0574 3.95993C19.6711 4.81138 20.001 5.83461 20 6.88422V12.0012C20 19.5642 10.8 23.7412 10.406 23.9152C10.2782 23.972 10.1399 24.0014 10 24.0014C9.86013 24.0014 9.72182 23.972 9.594 23.9152C9.2 23.7412 2.10612e-06 19.5642 2.10612e-06 12.0012V6.88422C-0.000961674 5.83461 0.328874 4.81138 0.942645 3.95993C1.55642 3.10848 2.42291 2.4721 3.419 2.14122L9.684 0.0522174C9.88913 -0.0161037 10.1109 -0.0161037 10.316 0.0522174ZM10 21.8902C11.681 21.0342 18 17.4562 18 12.0012V6.88422C17.9999 6.2545 17.8017 5.64076 17.4334 5.12996C17.0651 4.61916 16.5455 4.23721 15.948 4.03822L10 2.05522L4.052 4.03822C3.45455 4.23721 2.93486 4.61916 2.56657 5.12996C2.19828 5.64076 2.00006 6.2545 2 6.88422V12.0012C2 17.4702 8.317 21.0372 10 21.8902ZM14.7071 10.7076C15.0976 10.3171 15.0976 9.68391 14.7071 9.29338C14.3166 8.90286 13.6834 8.90286 13.2929 9.29338L9 13.5863L6.70711 11.2934C6.31658 10.9029 5.68342 10.9029 5.29289 11.2934C4.90237 11.6839 4.90237 12.3171 5.29289 12.7076L7.58579 15.0005C8.36684 15.7815 9.63317 15.7815 10.4142 15.0005L14.7071 10.7076Z" />
</svg>
