<svg id="Outline" viewBox="0 0 24 21" xmlns="http://www.w3.org/2000/svg">
<path fill-rule="evenodd" clip-rule="evenodd" d="M4 2.5H20C21.1046 2.5 22 3.39543 22 4.5V16.5C22 17.6046 21.1046 18.5 20 18.5H4C2.89543 18.5 2 17.6046 2 16.5V4.5C2 3.39543 2.89543 2.5 4 2.5ZM0 4.5C0 2.29086 1.79086 0.5 4 0.5H20C22.2091 0.5 24 2.29086 24 4.5V16.5C24 18.7091 22.2091 20.5 20 20.5H4C1.79086 20.5 0 18.7091 0 16.5V4.5ZM7.20416 6.76887C7.76751 6.41038 8.48744 6.41038 9.05078 6.76887L11.7771 8.50377C12.0747 8.69318 12.2549 9.02152 12.2549 9.37432V10.0286C12.2549 10.2185 12.1009 10.3725 11.911 10.3725H11.567V14.156C11.567 14.346 11.413 14.5 11.2231 14.5H9.84725C9.65729 14.5 9.5033 14.346 9.5033 14.156V10.3725H6.75165V14.156C6.75165 14.346 6.59765 14.5 6.40769 14.5H5.03187C4.84191 14.5 4.68791 14.346 4.68791 14.156V10.3725H4.34396C4.15399 10.3725 4 10.2185 4 10.0286V9.37432C4 9.02152 4.18024 8.69318 4.47788 8.50377L7.20416 6.76887ZM15 7.5C14.4477 7.5 14 7.94772 14 8.5C14 9.05229 14.4477 9.5 15 9.5H17C17.5523 9.5 18 9.05229 18 8.5C18 7.94772 17.5523 7.5 17 7.5H15ZM14 12.5C14 11.9477 14.4477 11.5 15 11.5H19C19.5523 11.5 20 11.9477 20 12.5C20 13.0523 19.5523 13.5 19 13.5H15C14.4477 13.5 14 13.0523 14 12.5Z" />
</svg>
