<svg id="Outline" viewBox="0 0 24 25" xmlns="http://www.w3.org/2000/svg">
<path fill-rule="evenodd" clip-rule="evenodd" d="M12 18.5H20C21.1046 18.5 22 17.6046 22 16.5V9.5H18C16.3431 9.5 15 8.15685 15 6.5V2.5H12C10.8954 2.5 10 3.39543 10 4.5V16.5C10 17.6046 10.8954 18.5 12 18.5ZM21.332 6.51336C21.6286 6.77817 21.8366 7.12248 21.9351 7.5H18C17.4477 7.5 17 7.05228 17 6.5V2.72721C17.1454 2.80314 17.282 2.89723 17.4062 3.00812L21.332 6.51336ZM14 20.5H12C9.79086 20.5 8 18.7091 8 16.5V6.5H4C2.89543 6.5 2 7.39543 2 8.5V20.5C2 21.6046 2.89543 22.5 4 22.5H12C13.1046 22.5 14 21.6046 14 20.5ZM16 20.5H20C22.2091 20.5 24 18.7091 24 16.5V8.00524C24 6.86577 23.514 5.78039 22.6641 5.02148L18.7382 1.51625C18.0052 0.861751 17.0568 0.5 16.0741 0.5H12C9.79086 0.5 8 2.29086 8 4.5L4 4.5C1.79086 4.5 0 6.29086 0 8.5V20.5C0 22.7091 1.79086 24.5 4 24.5H12C14.2091 24.5 16 22.7091 16 20.5Z"/>
</svg>
